<?xml version="1.0" encoding="UTF-8"?>
<svg width="2000px" height="200px" viewBox="0 0 2000 200" version="1.1" xmlns="http://www.w3.org/2000/svg">
    <g stroke="none" fill="#FFFFFF">
        <path d="M0,120 C100,120 130,100 200,100 C270,100 300,120 400,120 C500,120 530,100 600,100 C670,100 700,120 800,120 C900,120 930,100 1000,100 C1070,100 1100,120 1200,120 C1300,120 1330,100 1400,100 C1470,100 1500,120 1600,120 C1700,120 1730,100 1800,100 C1870,100 1900,120 2000,120 L2000,200 L0,200 Z"/>
    </g>
</svg>
